<svg xmlns="http://www.w3.org/2000/svg" viewBox="0 0 490 98.47"><defs><style>.a{fill:#fff;}</style></defs><title>iceswag logo</title><path class="a" d="M78.07,6.77v7.52H100.7V37h7.59V74.83h-7.48v7.56H93.07V74.93H85.61v-30H78.12v7.22H70.66c0,2-.08,4,0,5.88.08,1.42-.3,2-1.83,1.9-1.86-.14-3.74,0-5.76,0V67.4H55.43v7.4H48v7.65H40.39c0,2.19-.06,4.17,0,6.15,0,1.17-.35,1.57-1.52,1.53-2-.07-4,0-6.11,0v7.32H25.3c0,2.17-.07,4.15,0,6.12.06,1.33-.42,1.7-1.72,1.68-4.49-.07-9,0-13.61,0V89.83h7.49v-7.4H25c0-2,.1-3.86,0-5.71-.11-1.57.33-2.21,2-2.07s3.63,0,5.6,0V67.14h7.66v-7.4h7.41V52.08h7.63c0-2.19.06-4.17,0-6.15,0-1.17.35-1.57,1.51-1.53,2,.07,4,0,6.11,0V37.1h7.34V29.55H40.29V22.15H32.7V14.41h7.46V6.77Z" transform="translate(-10 -6.77)"/><path class="a" d="M142.95,83.47V74.31h9.16V28.53h-9.16V19.38h27.47v9.16h-9.15V74.31h9.15v9.16Z" transform="translate(-10 -6.77)"/><path class="a" d="M179.57,74.31V46.84h9.16V74.31Zm9.16-27.47V37.69h27.47v9.16Zm0,36.62V74.31h27.47v9.16ZM216.19,56V46.84h9.16V56Zm0,18.31V65.16h9.16v9.16Z" transform="translate(-10 -6.77)"/><path class="a" d="M234.5,74.31V46.84h9.16V56h27.47V46.84h9.15V65.16H243.66v9.16Zm9.16-27.47V37.69h27.47v9.16Zm0,36.62V74.31h36.62v9.16Z" transform="translate(-10 -6.77)"/><path class="a" d="M289.43,37.69V28.53h9.15v9.16Zm0,36.62V65.16h9.15v9.16Zm9.15-45.78V19.38h36.62v9.16Zm0,18.31V37.69h27.47v9.16Zm0,36.62V74.31h27.47v9.16Zm27.47-9.16V46.84h9.15V74.31Z" transform="translate(-10 -6.77)"/><path class="a" d="M344.36,74.31V37.69h9.15V74.31Zm9.15,9.16V74.31h9.16V56h9.15V74.31H381V37.69h9.15V83.47Z" transform="translate(-10 -6.77)"/><path class="a" d="M399.29,74.31V65.16h9.15v9.16Zm9.15-27.47V37.69h27.47v9.16Zm0,36.62V74.31h27.47V65.16H408.45V56h27.47V46.84h9.15V83.47Z" transform="translate(-10 -6.77)"/><path class="a" d="M454.22,65.16V46.84h9.15V65.16Zm0,27.47V83.47h36.62v9.16Zm36.62-9.16V74.31H463.38V65.16h27.47V46.84H463.38V37.69H500V83.47Z" transform="translate(-10 -6.77)"/></svg>