<svg xmlns="http://www.w3.org/2000/svg" viewBox="0 0 512 512"><defs><style>.a{fill:#485961;}.b{fill:#fff;}</style></defs><title>iceswag</title><circle class="a" cx="256" cy="256" r="249"/><path class="b" d="M256,0C114.62,0,0,114.62,0,256S114.62,512,256,512,512,397.38,512,256,397.38,0,256,0ZM425.71,425.71A240,240,0,1,1,86.29,86.29,240,240,0,1,1,425.71,425.71Z"/><path class="b" d="M319.62,101v22.7h68.31v68.49h22.93V306.47H388.28v22.81H364.9v-22.5H342.38v-90.7H319.77v21.8H297.24c0,6.19-.24,12,.08,17.74.24,4.28-.89,6.08-5.54,5.74-5.63-.41-11.3-.1-17.4-.1V284H251.26v22.34H228.9v23.1h-23c0,6.62-.18,12.6.07,18.57.14,3.52-1.06,4.75-4.57,4.62-6-.22-12-.06-18.44-.06v22.1h-22.6c0,6.56-.21,12.53.07,18.47.19,4-1.26,5.12-5.18,5.06-13.56-.22-27.13-.08-41.09-.08v-46.4h22.61V329.41h22.53c0-6,.29-11.65-.09-17.24-.33-4.74,1-6.66,6-6.25,5.45.44,11,.1,16.9.1V283.24h23.12V260.9h22.36V237.8h23c0-6.62.18-12.6-.07-18.57-.14-3.52,1.06-4.75,4.57-4.62,6,.22,12,.06,18.44.06v-22.1h22.15V169.78H205.56V147.42H182.65V124.07h22.51V101Z"/></svg>